<svg width="15" height="30" viewBox="0 0 33 45" fill="none" xmlns="http://www.w3.org/2000/svg">
<path fill-rule="evenodd" clip-rule="evenodd" d="M2 0C0.895431 0 0 0.89543 0 2V43C0 44.1046 0.895431 45 2 45H31C32.1046 45 33 44.1046 33 43V2C33 0.895431 32.1046 0 31 0H2ZM9.42857 20.25C9.42857 21.4926 8.37324 22.5 7.07143 22.5C5.76961 22.5 4.71429 21.4926 4.71429 20.25C4.71429 19.0074 5.76961 18 7.07143 18C8.37324 18 9.42857 19.0074 9.42857 20.25ZM7.07143 31.5C8.37324 31.5 9.42857 30.4926 9.42857 29.25C9.42857 28.0074 8.37324 27 7.07143 27C5.76961 27 4.71429 28.0074 4.71429 29.25C4.71429 30.4926 5.76961 31.5 7.07143 31.5ZM18.8571 20.25C18.8571 21.4926 17.8018 22.5 16.5 22.5C15.1982 22.5 14.1429 21.4926 14.1429 20.25C14.1429 19.0074 15.1982 18 16.5 18C17.8018 18 18.8571 19.0074 18.8571 20.25ZM16.5 31.5C17.8018 31.5 18.8571 30.4926 18.8571 29.25C18.8571 28.0074 17.8018 27 16.5 27C15.1982 27 14.1429 28.0074 14.1429 29.25C14.1429 30.4926 15.1982 31.5 16.5 31.5ZM28.2857 20.25C28.2857 21.4926 27.2304 22.5 25.9286 22.5C24.6268 22.5 23.5714 21.4926 23.5714 20.25C23.5714 19.0074 24.6268 18 25.9286 18C27.2304 18 28.2857 19.0074 28.2857 20.25ZM25.9286 31.5C27.2304 31.5 28.2857 30.4926 28.2857 29.25C28.2857 28.0074 27.2304 27 25.9286 27C24.6268 27 23.5714 28.0074 23.5714 29.25C23.5714 30.4926 24.6268 31.5 25.9286 31.5ZM28.2857 38.25C28.2857 39.4926 27.2304 40.5 25.9286 40.5C24.6268 40.5 23.5714 39.4926 23.5714 38.25C23.5714 37.0074 24.6268 36 25.9286 36C27.2304 36 28.2857 37.0074 28.2857 38.25ZM4.71429 38C4.71429 36.8954 5.60972 36 6.71429 36H16.8571C17.9617 36 18.8571 36.8954 18.8571 38V38.5C18.8571 39.6046 17.9617 40.5 16.8571 40.5H6.71429C5.60972 40.5 4.71429 39.6046 4.71429 38.5V38ZM28.2857 4.5H4.71429V13.5H28.2857V4.5Z" fill="#DEE1EF" fill-opacity="0.6"/>
</svg>
